<?xml version="1.0" standalone="no"?>
<!DOCTYPE svg PUBLIC "-//W3C//DTD SVG 20010904//EN"
 "http://www.w3.org/TR/2001/REC-SVG-20010904/DTD/svg10.dtd">
<svg version="1.0" xmlns="http://www.w3.org/2000/svg"
 width="300.000000pt" height="300.000000pt" viewBox="0 0 300.000000 300.000000"
 preserveAspectRatio="xMidYMid meet">
<metadata>
Created by potrace 1.11, written by Peter Selinger 2001-2013
</metadata>
<g transform="translate(0.000000,300.000000) scale(0.100000,-0.100000)"
fill="#000000" stroke="none">
<path d="M1212 2661 c-15 -9 -15 -103 -1 -153 11 -38 -4 -35 -26 6 -15 28 -22
32 -43 27 -45 -12 -50 -36 -17 -71 32 -34 28 -37 -16 -15 -16 9 -53 18 -83 21
-48 5 -54 3 -59 -15 -6 -24 -2 -28 88 -75 79 -41 119 -75 170 -142 36 -47 43
-64 25 -64 -38 0 -220 -155 -220 -187 0 -7 -5 -13 -10 -13 -10 0 -58 -99 -63
-130 -1 -8 -7 -22 -12 -30 -14 -23 -18 -238 -6 -320 14 -93 69 -310 81 -326 6
-6 7 -13 5 -16 -3 -3 6 -43 20 -89 14 -46 30 -102 36 -124 24 -92 54 -120 144
-135 62 -11 250 -14 264 -5 5 2 9 -50 10 -118 1 -67 3 -142 4 -167 2 -49 5
-47 -65 -33 -68 13 -149 -31 -184 -100 -23 -44 -13 -122 20 -152 13 -12 23
-29 22 -36 -7 -35 -37 -125 -49 -143 -38 -60 -57 -56 289 -56 l316 0 -5 27
c-3 16 -10 47 -15 70 -11 52 2 84 40 97 23 8 31 6 48 -14 11 -13 23 -34 26
-47 4 -13 9 -23 13 -23 7 0 13 -34 15 -82 1 -28 1 -28 77 -28 85 0 85 0 66 80
-11 47 -66 173 -78 178 -8 3 12 62 21 62 3 0 5 31 5 69 -2 82 -24 121 -84 144
-46 19 -81 14 -136 -16 -35 -20 -101 -27 -155 -18 -6 1 -7 15 -15 151 -7 131
-8 170 -3 176 3 2 22 5 44 7 21 1 41 5 44 8 3 4 21 10 40 13 44 7 252 72 305
96 22 9 69 30 105 46 112 49 111 47 105 139 -8 120 -27 299 -39 365 -3 14 -7
45 -10 70 -3 25 -8 56 -11 70 -5 27 -13 79 -20 135 -17 129 -79 378 -102 409
-26 35 -109 82 -168 95 -90 21 -99 22 -195 21 -83 0 -136 -6 -305 -36 -35 -6
-38 -5 -28 8 7 8 10 17 8 20 -3 3 -1 16 4 29 5 13 9 27 9 32 1 4 15 34 32 66
21 40 44 66 74 85 41 26 43 29 37 78 -1 4 -8 14 -17 23 -34 33 -100 -11 -150
-101 -20 -35 -38 -64 -40 -64 -8 0 8 73 27 123 17 47 17 49 -2 68 -10 10 -25
19 -31 19 -31 0 -86 -120 -75 -162 3 -11 1 -18 -6 -15 -6 2 -11 12 -13 23 -2
18 -15 116 -18 139 -5 32 -35 45 -64 26z"/>
</g>
</svg>
